<svg xmlns="http://www.w3.org/2000/svg" width="256" height="256"><path fill-opacity=".016" d="M0 128.004v128.004l128.25-.254 128.25-.254.254-127.75L257.008 0H0v128.004m.485.496c0 70.4.119 99.053.265 63.672.146-35.38.146-92.98 0-128C.604 29.153.485 58.1.485 128.5" fill="#1976D2" fill-rule="evenodd"/><path fill-opacity=".326" d="M125.011 44.487c-.679.818-.951 2.228-.603 3.133.405 1.055-.861 3.663-3.525 7.263-5.134 6.939-6.568 8.117-9.878 8.117-3.566 0-9.446-6.034-8.57-8.795.391-1.231-.001-2.628-1.022-3.65-3.416-3.415-8.072.568-5.484 4.692.777 1.239 2.377 6.078 3.555 10.753l2.141 8.5 26.105.266 26.104.267 1.015-3.267c.558-1.796 1.568-5.859 2.245-9.028.676-3.169 1.832-6.261 2.568-6.872 2.741-2.275.851-6.866-2.827-6.866-2.159 0-4.057 3.259-3.199 5.493.913 2.38-5.311 8.507-8.641 8.507-3.31 0-4.744-1.178-9.878-8.117-2.664-3.6-3.93-6.208-3.525-7.263.78-2.032-1.232-4.62-3.592-4.62-.965 0-2.311.669-2.989 1.487M102.396 80.41c-.305.795-.406 2.49-.225 3.767l.329 2.323 25.811.267 25.812.267-.312-3.767-.311-3.767-25.275-.267c-21.286-.225-25.362-.039-25.829 1.177m72.021 25.908c-2.534 2.179-2.758 2.81-1.883 5.299.547 1.554 2.874 4.088 5.171 5.631 4.804 3.226 6.223 6.253 3.982 8.493-2.425 2.426-6.62.844-7.342-2.768-.84-4.196-2.346-3.697-2.342.777l.004 3.75 5.31.285c4.227.227 5.669-.112 7.071-1.662 3.018-3.335 1.729-7.09-3.888-11.326-6.015-4.536-6.935-8.297-2.03-8.297 2.089 0 3.307.673 4.102 2.268 1.857 3.725 2.428 3.752 2.428.113 0-2.577-.444-3.482-1.75-3.57-.963-.064-2.696-.421-3.853-.792-1.475-.474-2.964.064-4.98 1.799m-103.667-.656c1.557.629 1.8 20.338.25 20.338-.55 0-1 .45-1 1s1.8 1 4 1 4-.45 4-1-.45-1-1-1-1-2.056-1-4.57c0-4.122.213-4.538 2.173-4.25 1.628.24 2.569 1.571 3.75 5.311 1.603 5.074 4.107 6.879 6.383 4.603.792-.792.637-1.094-.561-1.094-1.096 0-1.874-1.17-2.304-3.464-.358-1.906-1.288-3.994-2.067-4.641-1.201-.997-1.109-1.392.604-2.592 2.548-1.785 2.652-6.423.193-8.648-1.326-1.2-3.593-1.633-8.25-1.576-3.531.043-5.858.306-5.171.583m20.5.418c1.464.853 1.75 2.507 1.75 10.109 0 7.485-.309 9.325-1.75 10.419-1.498 1.137-.491 1.333 7 1.36L107 128v-3.5c0-4.124-.683-4.465-2-1-.797 2.095-1.602 2.5-4.975 2.5H96v-4.5c0-3.709.325-4.5 1.847-4.5 1.016 0 2.336 1.013 2.933 2.25.948 1.967 1.093 1.654 1.152-2.5.038-2.612-.382-4.75-.932-4.75s-1 .675-1 1.5c0 .847-.895 1.5-2.057 1.5-1.803 0-2.02-.527-1.75-4.25.298-4.125.409-4.25 3.777-4.25 2.698 0 3.752.557 4.736 2.5l1.265 2.5.014-3.25L106 105l-8.25.03c-6.093.023-7.792.297-6.5 1.05m19.5-.418c1.557.629 1.8 20.338.25 20.338-.55 0-1 .45-1 1s1.35 1 3 1c3.337 0 3.769-.717 1.454-2.41-1.219-.891-1.484-2.82-1.25-9.11l.296-7.98 6.375 9.792c3.506 5.386 6.536 9.63 6.733 9.433.198-.198.479-4.958.626-10.58.203-7.782.624-10.446 1.766-11.167 1.089-.688.403-.943-2.5-.932-3.199.012-3.65.219-2.25 1.034 1.407.82 1.75 2.413 1.75 8.131v7.112l-5.25-8.158c-4.701-7.304-5.564-8.149-8.25-8.082-1.65.041-2.437.302-1.75.579M131 108.5c0 1.925.45 3.5 1 3.5s1-.81 1-1.8c0-2.304 1.896-4.2 4.2-4.2 1.613 0 1.8 1.037 1.8 10 0 8.222-.267 10-1.5 10-.825 0-1.5.45-1.5 1s2.025 1 4.5 1 4.5-.45 4.5-1-.675-1-1.5-1c-1.233 0-1.5-1.778-1.5-10 0-8.963.187-10 1.8-10 2.304 0 4.2 1.896 4.2 4.2 0 .99.45 1.8 1 1.8s1-1.575 1-3.5V105h-19v3.5m27.196.585c-1.031 2.428-2.957 7.228-4.28 10.665-1.323 3.438-2.746 6.25-3.161 6.25-.415 0-.755.45-.755 1s1.35 1 3 1c2.99 0 4.124-1.458 1.75-2.251-.937-.312-.995-1.148-.232-3.333.837-2.396 1.663-2.97 4.634-3.219 3.295-.277 3.717-.013 4.763 2.989.773 2.217.811 3.405.116 3.637-2.497.832-.684 2.177 2.935 2.177h3.967l-1.845-3.25c-1.015-1.787-3.086-6.625-4.601-10.75-1.516-4.125-3.13-7.912-3.586-8.415-.469-.516-1.647 1.008-2.705 3.5M76 111c0 4.101.315 4.997 1.75 4.985 3.04-.027 4.583-1.705 4.583-4.985 0-3.28-1.543-4.958-4.583-4.985-1.435-.012-1.75.884-1.75 4.985m81.782 2.872L156.161 118h2.919c3.243 0 3.275-.099 1.546-4.878l-1.222-3.378-1.622 4.128M72.25 132.08c1.464.853 1.75 2.507 1.75 10.109 0 7.485-.309 9.325-1.75 10.419-1.534 1.165-1.164 1.332 3 1.36 2.612.018 4.75-.418 4.75-.968s-.675-1-1.5-1c-1.048 0-1.5-1.056-1.5-3.5 0-3.234.232-3.5 3.045-3.5 3.774 0 7.955-3.918 7.955-7.455 0-4.631-3.164-6.549-10.75-6.515-5.074.023-6.315.284-5 1.05m24.813 1.67c-.692 1.512-2.362 5.675-3.71 9.25-1.348 3.575-3.114 7.512-3.925 8.75-1.44 2.197-1.386 2.249 2.299 2.218 3.487-.029 3.63-.14 1.885-1.461-1.615-1.223-1.721-1.83-.732-4.218.982-2.373 1.703-2.773 4.838-2.685 3.064.087 3.835.556 4.578 2.784.609 1.826.505 3.146-.324 4.146-1.035 1.247-.617 1.466 2.798 1.466h4.014l-1.778-3.488c-.978-1.919-3.059-7.094-4.625-11.5-1.566-4.407-3.12-8.012-3.453-8.012-.334 0-1.173 1.238-1.865 2.75m13.687-2.088c1.701.687 1.745 19.443.05 21.138-.933.933.733 1.2 7.5 1.2h8.7v-3.5c0-3.861-1.673-4.82-2.18-1.25-.266 1.87-1.037 2.302-4.57 2.557l-4.25.308v-9.974c0-7.044.367-10.123 1.25-10.479.688-.277-.775-.504-3.25-.504s-3.937.227-3.25.504m18.5.418c1.464.853 1.75 2.507 1.75 10.109 0 7.485-.309 9.325-1.75 10.419-1.529 1.161-1.119 1.328 3.25 1.328s4.779-.167 3.25-1.328c-2.239-1.699-2.411-8.417-.237-9.251 2.301-.883 4.145 1.229 5.39 6.173.946 3.756 1.513 4.47 3.552 4.47 1.335 0 2.705-.45 3.045-1 .34-.55-.066-1-.902-1-.925 0-1.938-1.55-2.587-3.958-.586-2.177-1.487-4.218-2.002-4.536-.515-.319-.052-1.463 1.027-2.542 1.08-1.08 1.964-3.063 1.964-4.407 0-3.809-3.48-5.561-10.973-5.527-4.922.023-6.097.281-4.777 1.05m20.5-.418c1.701.687 1.745 19.443.05 21.138-.933.933.733 1.2 7.5 1.2h8.7v-3.5c0-3.861-1.673-4.82-2.18-1.25-.266 1.87-1.037 2.302-4.57 2.557l-4.25.308v-4.558c0-3.89.293-4.557 2-4.557 1.333 0 2 .667 2 2 0 1.1.45 2 1 2s1-2.025 1-4.5c0-4.607-1.353-6.084-2.29-2.5-.287 1.1-1.265 2-2.171 2-1.343 0-1.592-.881-1.344-4.75.291-4.534.45-4.764 3.492-5.059 2.624-.254 3.457.188 4.71 2.5l1.523 2.809.04-3.25.04-3.25-8.25.079c-4.537.043-7.687.306-7 .583m21.349 6.588c3.648 6.872 5.099 13.75 2.901 13.75-.55 0-1 .45-1 1s1.89 1 4.2 1c3.267 0 3.933-.267 3-1.2-2.275-2.275-1.318-8.997 2.214-15.55l3.368-6.25-3.141.079c-1.727.043-2.578.306-1.891.583 1.788.722 1.551 2.827-.848 7.529l-2.097 4.112-2.844-4.87c-2.088-3.575-2.561-5.21-1.78-6.151.831-1.001.297-1.282-2.433-1.282h-3.498l3.849 7.25m-93.432-5.583c-.808.808-.896 9.771-.104 10.563.31.31 1.773.242 3.25-.15 2.226-.59 2.741-1.356 3.002-4.466.173-2.064-.22-4.397-.873-5.184-1.239-1.493-4.128-1.911-5.275-.763m57 0c-.367.366-.667 2.616-.667 5 0 3.855.254 4.333 2.3 4.333 3.019 0 4.7-1.788 4.7-5 0-3.916-4.008-6.658-6.333-4.333m-38.43 6.554C94.574 143.819 94.622 144 97.5 144c2.763 0 3.008-1.1 1.192-5.35l-1.218-2.851-1.237 3.422m3.979 38.339.284 10.56 13.724 7.19 13.724 7.19 13.776-7.199 13.776-7.199.284-10.551.284-10.551H99.932l.284 10.56" fill="#1976D2" fill-rule="evenodd"/><path fill-opacity=".196" d="M70.82 105.867c.987.627 1.239 3.391 1 10.987-.302 9.591-.21 10.15 1.68 10.149 1.783-.002 1.962-.552 1.648-5.079-.35-5.06-.342-5.075 2.5-4.75 2.452.28 3.074 1.027 4.433 5.326 1.616 5.11 4.007 6.833 6.275 4.522.862-.877.793-1.086-.277-.843-.903.204-1.997-1.288-3.003-4.097-.871-2.43-2.153-4.608-2.85-4.84-.825-.275-.388-1.114 1.254-2.405 1.427-1.123 2.52-3.01 2.52-4.353 0-2.649-3.365-5.492-6.473-5.469-1.791.013-1.736.161.473 1.273 2.813 1.416 3.881 5.946 1.95 8.272-.657.792-2.49 1.44-4.072 1.44-2.724 0-2.878-.23-2.878-4.3 0-2.365.54-4.84 1.2-5.5.933-.933.322-1.197-2.75-1.185-2.509.01-3.469.321-2.63.852m20.93-.205c1.562.631 1.758 19.43.219 20.969-.709.709-.161.905 1.75.626l2.781-.406-.314-10.426L95.871 106h4.097c3.314 0 4.269.43 5.001 2.25.869 2.163.907 2.143.968-.5L106 105l-7.75.079c-4.263.043-7.187.306-6.5.583m19.07.205c.987.627 1.239 3.391 1 10.987-.199 6.313.058 10.15.68 10.15.62 0 .88-3.706.684-9.752-.193-5.929.041-9.36.597-8.752.502.55 3.57 5.05 6.816 10l5.903 9 .289-9.944c.158-5.469.776-10.532 1.372-11.25.851-1.025.466-1.289-1.789-1.227-1.579.043-2.309.306-1.622.583.847.342 1.25 2.972 1.25 8.162v7.658l-5.517-8.241c-4.676-6.983-5.935-8.239-8.25-8.226-1.855.011-2.309.284-1.413.852m21.28 2.383c.092 2.994.154 3.053.789.75.49-1.773 1.497-2.594 3.466-2.823l2.777-.323-.316 10.575c-.299 10.014-.21 10.575 1.684 10.575s1.983-.561 1.684-10.575l-.316-10.575 2.777.323c1.969.229 2.976 1.05 3.466 2.823.635 2.303.697 2.244.789-.75l.1-3.25h-17l.1 3.25m27.498-1.644c-.613 1.596.922 6.952 4.024 14.045.758 1.733 1.378 3.871 1.378 4.75 0 1.059.886 1.599 2.622 1.599 2.039 0 2.383-.29 1.544-1.3-.593-.715-2.696-5.537-4.672-10.716-1.977-5.18-3.741-9.564-3.92-9.744-.18-.179-.619.435-.976 1.366m14.602-.406c-1.566 1.566-1.538 6.013.05 7.916.688.824 2.938 2.733 5 4.242 2.063 1.509 3.75 3.566 3.75 4.57 0 4.418-6.536 5.412-8.576 1.304-1.814-3.652-2.424-3.768-2.424-.46 0 2.902.287 3.149 4.386 3.763 4.948.742 8.151-.5 9.114-3.534 1.053-3.32-.348-5.704-5.549-9.441-4.94-3.549-6.062-6.049-3.751-8.36.667-.667.756-1.2.2-1.2-.55 0-1.54.54-2.2 1.2m7.125.153c.784.631 1.919 2.047 2.52 3.147.995 1.819 1.097 1.729 1.124-1 .025-2.519-.379-3.024-2.52-3.147-2.071-.12-2.282.068-1.124 1m-81.386 7.928c-1.43 2.034-1.409 2.365.25 3.969 1.738 1.679 1.811 1.588 1.811-2.25 0-2.2-.112-3.986-.25-3.969-.138.018-.952 1.03-1.811 2.25m54.685 4.258c-.965 2.514-.681 3.163.498 1.136.584-1.004.851-2.036.593-2.293-.257-.258-.749.263-1.091 1.157M106 122.429c0 .785-.707 2.135-1.571 3-1.429 1.428-1.384 1.571.5 1.571 1.634 0 2.071-.632 2.071-3 0-1.65-.225-3-.5-3s-.5.643-.5 1.429m46.182 2.071c-.935 2.053-.875 2.5.339 2.5.911 0 1.479-.961 1.479-2.5 0-1.375-.153-2.5-.339-2.5-.187 0-.853 1.125-1.479 2.5m-79.432 7.162c1.586.64 1.756 19.432.191 20.997-.746.746-.2 1.028 1.847.95 2.787-.105 2.888-.274 2.456-4.124l-.451-4.015 4.465-1.194c3.496-.935 4.739-1.854 5.723-4.229 1.059-2.559 1.007-3.417-.335-5.465-1.54-2.351-5.275-4.287-6.297-3.265-.275.275.389.783 1.476 1.128 3.799 1.205 3.55 9.43-.33 10.919-3.918 1.503-4.495.826-4.495-5.281 0-3.797.448-6.097 1.25-6.421.688-.277-.55-.504-2.75-.504s-3.437.227-2.75.504m24.997 1.022a79.787 79.787 0 0 1-1.228 3.816c-.507 1.433-.433 1.616.262.643.713-.998 1.763.717 3.98 6.5 1.858 4.849 2.67 8.281 2.121 8.964-.614.764.04 1.073 2.112 1 3.124-.111 3.574-.557 2.176-2.157-.456-.522-2.332-5-4.17-9.95-3.769-10.154-4.512-11.4-5.253-8.816m14.053-.484c.76.76 1.2 4.589 1.2 10.45 0 7.687-.289 9.412-1.709 10.207-1.32.739-.88.933 1.93.854 3.133-.089 3.51-.345 2.709-1.841-1.261-2.357-1.182-16.53.105-18.936.924-1.727.689-1.934-2.2-1.934-2.516 0-2.968.267-2.035 1.2m17.95-.538c1.543.623 1.768 19.42.25 20.938-.667.667.167 1 2.5 1s3.167-.333 2.5-1c-.55-.55-1-2.965-1-5.366 0-4.146.135-4.351 2.674-4.05 2.24.265 2.931 1.127 4.25 5.307 1.616 5.117 4.113 6.881 6.432 4.544.861-.869.727-.995-.545-.511-1.325.505-1.919-.212-2.757-3.324-.588-2.182-1.72-4.508-2.517-5.169-1.235-1.026-1.065-1.533 1.158-3.445 3.409-2.932 2.639-6.791-1.714-8.594-1.675-.694-3.29-1.017-3.588-.718-.299.299.389.839 1.529 1.201 4.888 1.552 3.25 9.525-1.957 9.525-2.827 0-2.965-.2-2.965-4.3 0-2.365.54-4.84 1.2-5.5.933-.933.322-1.182-2.75-1.121-2.172.043-3.387.306-2.7.583m21.05.538c1.499 1.499 1.641 18.959.167 20.433-.711.711-.166 1.034 1.75 1.036l2.783.002-.312-10.836-.313-10.835h3.506c2.489 0 3.957.645 5.062 2.223l1.557 2.222V131h-7.7c-5.989 0-7.433.267-6.5 1.2m20.265 5.534c4.004 6.852 5.4 14.611 2.785 15.483-.632.211.473.383 2.456.383 2.819 0 3.375-.28 2.544-1.281-.585-.705-.895-3.052-.688-5.216.206-2.164.111-3.772-.212-3.572-.322.199-1.821-2.157-3.331-5.236-2.168-4.42-2.47-5.774-1.433-6.431.839-.532-.018-.839-2.371-.849L167.13 131l3.935 6.734m10.143-5.677c1.059.617 1.474 1.651 1.091 2.719-.34.948-.429 1.499-.198 1.224l2.315-2.75 1.894-2.25-3.405.03c-2.745.025-3.074.224-1.697 1.027m-22.809 8.693c-.829 1.34-.699 2.15.553 3.458 1.527 1.595 1.61 1.478 1.233-1.75-.222-1.902-.471-3.458-.554-3.458-.082 0-.637.787-1.232 1.75m-65.816 4.893c-.918 2.394-.202 2.578 1.213.312.672-1.075.815-1.955.319-1.955-.495 0-1.185.739-1.532 1.643M125 149.171c0 .644-.723 1.97-1.606 2.946-1.491 1.647-1.455 1.763.5 1.616 1.6-.12 2.106-.829 2.106-2.946 0-1.533-.225-2.787-.5-2.787s-.5.527-.5 1.171m-34.753 1.806c-1.616 2.586-1.658 2.499 1.29 2.669 1.777.103 2.266-.196 1.634-1-.496-.63-1.077-1.713-1.29-2.406-.255-.83-.812-.579-1.634.737M164 149.973c0 .719-.787 1.913-1.75 2.654-1.593 1.226-1.526 1.315.75.992 1.817-.258 2.406-.869 2.155-2.237-.422-2.303-1.155-3.197-1.155-1.409" fill="#1976D2" fill-rule="evenodd"/><path fill-opacity=".897" d="M72.5 116.192c0 8.937.259 10.805 1.5 10.807 1.242.001 1.5-1.878 1.5-10.918 0-9.089-.251-10.9-1.5-10.807-1.234.092-1.5 2.029-1.5 10.918m20.312-.194c.249 8.756.606 11.002 1.75 11.002 1.163 0 1.438-2.101 1.438-11 0-9.809-.19-11-1.75-11.002-1.58-.002-1.72 1.069-1.438 11m11.203-10.307c.009.445.452 1.484.985 2.309.835 1.293.971 1.266.985-.191.008-.93-.435-1.969-.985-2.309-.55-.34-.993-.254-.985.191m7.985.392c0 .413.389.9.864 1.084.475.183 3.737 4.832 7.25 10.332 5.235 8.195 6.447 9.568 6.723 7.613.186-1.312-.076-2.662-.582-2.999-.506-.337-3.24-4.251-6.077-8.696-2.836-4.446-5.837-8.084-6.667-8.084-.831 0-1.511.338-1.511.75m14-.024c0 .582.45.781 1 .441s1-.816 1-1.059-.45-.441-1-.441-1 .477-1 1.059m6 .563c0 1.329.271 1.398 1.5.378.825-.685 1.5-1.415 1.5-1.622 0-.208-.675-.378-1.5-.378s-1.5.73-1.5 1.622m7.567-.539c-.274.779-.626 5.806-.782 11.169-.268 9.181-.168 9.752 1.715 9.752 1.89 0 1.983-.561 1.685-10.252-.292-9.517-1.414-14.093-2.618-10.669m7.528.667a93.003 93.003 0 0 1 1.622 2.167c.156.229.283-.559.283-1.75 0-1.332-.625-2.167-1.622-2.167-1.389 0-1.43.252-.283 1.75m-65.295.45c1.547 1.547 1.547 6.053 0 7.6-.867.867-.883 1.2-.057 1.2 1.33 0 4.257-3.886 4.257-5.651 0-1.522-2.777-4.349-4.271-4.349-.799 0-.778.351.071 1.2m77.831-.413c-.313.507.802 4.474 2.477 8.817 1.675 4.343 3.107 8.683 3.181 9.646.075.963.907 1.75 1.848 1.75 1.468 0 1.143-1.46-2.274-10.228-4.381-11.242-4.415-11.306-5.232-9.985m14.119-.216c-.412.419-.75 1.959-.75 3.421 0 2.71 2.162 5.184 7.349 8.411 2.408 1.499 2.788 2.301 2.451 5.185-.473 4.052-.325 4.142 1.711 1.035 2.149-3.279.56-6.435-5.014-9.962-3.378-2.137-4.449-3.464-4.688-5.811-.17-1.673-.647-2.698-1.059-2.279M99.5 116c-.34.55-.141 1 .441 1s1.059-.45 1.059-1-.198-1-.441-1-.719.45-1.059 1m-18.138 2.343c.356 1.013.932 3.038 1.28 4.5.691 2.897 2.165 5.157 3.363 5.157 1.16 0-1.919-8.295-3.712-10-1.411-1.342-1.509-1.306-.931.343M173 124.5c0 .825.436 1.5.969 1.5.532 0 .709-.675.393-1.5-.317-.825-.753-1.5-.969-1.5-.216 0-.393.675-.393 1.5m-68.5 1.5c-.34.55-.141 1 .441 1s1.059-.45 1.059-1-.198-1-.441-1-.719.45-1.059 1m47 0c-.34.55.11 1 1 1s1.34-.45 1-1c-.34-.55-.79-1-1-1-.21 0-.66.45-1 1M74 142.5c0 8.667.262 10.5 1.5 10.5s1.5-1.833 1.5-10.5-.262-10.5-1.5-10.5-1.5 1.833-1.5 10.5m9.965-8.566c1.318 2.463 1.338 6.761.035 7.566-.55.34-1 1.111-1 1.714s.9.281 2-.714c2.24-2.027 2.702-7.398.8-9.3-1.863-1.863-2.985-1.414-1.835.734m13.836-.836c-.225.673 1.078 4.968 2.895 9.545 1.817 4.576 3.304 8.779 3.304 9.339 0 .56.675 1.018 1.5 1.018s1.498-.113 1.496-.25c-.011-.71-7.776-19.864-8.242-20.329-.3-.3-.729.005-.953.677M112.5 142.5c0 8.667.262 10.5 1.5 10.5s1.5-1.833 1.5-10.5-.262-10.5-1.5-10.5-1.5 1.833-1.5 10.5m18.5 0c0 8.667.262 10.5 1.5 10.5s1.5-1.833 1.5-10.5-.262-10.5-1.5-10.5-1.5 1.833-1.5 10.5m9.8-9.3c.66.66 1.2 2.37 1.2 3.8 0 1.43-.54 3.14-1.2 3.8-.667.667-.756 1.2-.2 1.2 1.802 0 3.4-2.35 3.4-5s-1.598-5-3.4-5c-.556 0-.467.533.2 1.2m11.014 9.302c-.263 8.809-.072 10.502 1.186 10.5 1.238-.002 1.5-1.836 1.5-10.502 0-7.429-.347-10.5-1.186-10.5-.819 0-1.283 3.248-1.5 10.502M163.5 133c.34.55.816 1 1.059 1s.441-.45.441-1-.477-1-1.059-1-.781.45-.441 1m8.656 6.033c3.144 5.453 3.964 7.812 3.65 10.5-.278 2.385.001 3.467.895 3.467 3.936 0-2.921-20.812-6.9-20.944-1.364-.045-.899 1.332 2.355 6.977M182.5 133c.34.55.816 1 1.059 1s.441-.45.441-1-.477-1-1.059-1-.781.45-.441 1m-23.849 8.468c-.31.807-.133 1.734.393 2.059.526.325.956-.336.956-1.468 0-2.415-.556-2.658-1.349-.591m-17.501 6.706c.893 3.971 2.182 5.773 4.159 5.811.445.008.445-.547 0-1.235-.445-.687-1.263-2.789-1.819-4.67-1.553-5.263-3.526-5.185-2.34.094m-16.512 3.326c-.316.825-.139 1.5.393 1.5.533 0 .969-.675.969-1.5s-.177-1.5-.393-1.5c-.216 0-.652.675-.969 1.5m39 0c-.316.825-.139 1.5.393 1.5.533 0 .969-.675.969-1.5s-.177-1.5-.393-1.5c-.216 0-.652.675-.969 1.5" fill="#1976D2" fill-rule="evenodd"/></svg>