<svg xmlns="http://www.w3.org/2000/svg" width="256" height="256"><path fill-opacity=".016" d="M0 128.004v128.004l128.25-.254 128.25-.254.254-127.75L257.008 0H0v128.004m.485.496c0 70.4.119 99.053.265 63.672.146-35.38.146-92.98 0-128C.604 29.153.485 58.1.485 128.5" fill="#1976D2" fill-rule="evenodd"/><path fill-opacity=".255" d="M124.356 44.515c-.32.833-.355 2.38-.078 3.438.757 2.898-9.549 15.047-12.765 15.047-3.405 0-9.741-5.705-8.985-8.09 1.438-4.528-3.615-7.68-6.957-4.339-1.985 1.985-1.974 2.883.057 4.914.895.895 2.611 5.54 3.813 10.321l2.185 8.694h52.748l2.142-8.5c1.177-4.675 2.778-9.514 3.555-10.753 1.064-1.695 1.142-2.687.315-4-2.579-4.096-7.964-1.885-7.011 2.878.446 2.228-.102 3.306-2.949 5.806-5.794 5.087-8.756 4.038-15.573-5.517-1.844-2.586-3.213-5.17-3.041-5.743.171-.573.05-2.084-.269-3.357-.447-1.778-1.279-2.314-3.593-2.314-1.769 0-3.253.626-3.594 1.515M102 83v4h52v-8h-52v4m73.228 22.23c-5.044 2.431-3.533 8.564 3.122 12.677 4.035 2.494 5.042 4.492 3.611 7.165-1.956 3.655-7.961 1.284-7.961-3.143 0-1.061-.45-1.929-1-1.929s-1 1.69-1 3.756v3.756l5.303.29c4.235.233 5.66-.103 7.075-1.667 2.924-3.231 1.736-7.085-3.378-10.957-5.234-3.963-6.238-5.393-5.374-7.646.915-2.383 5.568-1.556 6.952 1.236 1.864 3.761 2.422 3.745 2.422-.07 0-2.704-.358-3.498-1.399-3.098-.769.295-1.696.056-2.059-.532-.824-1.333-3.347-1.268-6.314.162m-104.978.459c1.518.397 1.75 1.771 1.75 10.384 0 5.951-.4 9.927-1 9.927-.55 0-1 .45-1 1s1.8 1 4 1 4-.45 4-1-.45-1-1-1-1-2.056-1-4.57c0-4.166.198-4.541 2.25-4.25 1.692.241 2.498 1.312 3.25 4.32 1.347 5.387 2.199 6.5 4.976 6.5 1.296 0 2.584-.562 2.862-1.25.403-1 .52-1 .583 0 .057.896 2.488 1.25 8.579 1.25h8.5v-3.5c0-4.124-.683-4.465-2-1-.797 2.095-1.602 2.5-4.975 2.5H96v-4.5c0-3.74.318-4.5 1.883-4.5 1.062 0 2.214.981 2.641 2.25.731 2.17.773 2.152 1.184-.5.233-1.512.233-3.987 0-5.5-.411-2.652-.453-2.67-1.184-.5-.437 1.3-1.577 2.25-2.698 2.25-1.665 0-1.897-.604-1.633-4.25.298-4.125.409-4.25 3.777-4.25 2.698 0 3.752.557 4.736 2.5.857 1.694 1.269 1.962 1.279.832.008-.918.288-2.38.622-3.25.525-1.369-.579-1.582-8.191-1.582-7.349 0-8.513.209-7.065 1.268 1.463 1.069 1.688 2.663 1.441 10.221l-.292 8.955-3.161.156c-2.826.14-3.227-.191-3.777-3.121-.338-1.803-1.288-3.837-2.11-4.519-1.308-1.086-1.242-1.419.526-2.657 2.548-1.785 2.652-6.423.193-8.648-1.363-1.234-3.591-1.625-8.75-1.539-3.806.064-6.134.322-5.171.573m40 .391c1.464.853 1.75 2.507 1.75 10.109 0 7.485-.309 9.325-1.75 10.419-1.555 1.18-1.332 1.332 2 1.36 2.063.018 3.75-.418 3.75-.968s-.417-1-.927-1c-.509 0-1.072-3.826-1.25-8.502-.177-4.677-.27-8.502-.205-8.5.065.001 2.988 4.354 6.496 9.674l6.377 9.672.697-3.922c.383-2.157.723-7.147.754-11.089.039-4.751.479-7.336 1.308-7.671.688-.277-.524-.54-2.691-.583-3.432-.069-3.716.086-2.197 1.197 1.412 1.032 1.687 2.513 1.442 7.75l-.304 6.474-4.925-7.75c-4.654-7.325-5.12-7.748-8.5-7.72-2.913.025-3.251.219-1.825 1.05M131 108.5c0 1.925.45 3.5 1 3.5s1-.81 1-1.8c0-2.304 1.896-4.2 4.2-4.2 1.607 0 1.8 1.02 1.8 9.531 0 7.55-.312 9.651-1.5 10.107-2.967 1.139-1.413 2.362 3 2.362s5.967-1.223 3-2.362c-1.188-.456-1.5-2.557-1.5-10.107 0-8.511.193-9.531 1.8-9.531 2.304 0 4.2 1.896 4.2 4.2 0 .99.45 1.8 1 1.8s1-1.575 1-3.5V105h-19v3.5m24.48 6.989c-2.176 5.781-4.299 10.511-4.718 10.511-.419 0-.762.45-.762 1s1.35 1 3 1c2.929 0 4.141-1.453 1.85-2.217-.81-.27-.87-1.224-.201-3.229.803-2.41 1.513-2.861 4.64-2.95 3.239-.091 3.818.262 4.732 2.886.715 2.049.718 3.097.01 3.333-2.507.836-.678 2.177 2.969 2.177 3.617 0 5.474-1.333 3.018-2.167-.54-.183-2.724-4.811-4.852-10.284-2.128-5.472-4.288-10.09-4.799-10.26-.512-.171-2.711 4.42-4.887 10.2M76 111c0 4.101.315 4.997 1.75 4.985 2.988-.026 4.371-1.552 4.467-4.928.095-3.338-1.391-5.015-4.467-5.042-1.435-.012-1.75.884-1.75 4.985m81.807 3c-1.442 3.424-1.421 3.507.951 3.825 3.315.445 3.564-.065 1.933-3.959l-1.409-3.366-1.475 3.5M72.25 132.08c1.464.853 1.75 2.507 1.75 10.109 0 7.485-.309 9.325-1.75 10.419-1.534 1.165-1.164 1.332 3 1.36 2.612.018 4.75-.418 4.75-.968s-.675-1-1.5-1c-1.048 0-1.5-1.056-1.5-3.5 0-3.186.257-3.5 2.865-3.5 6.751 0 10.602-7.533 6.135-12-1.613-1.613-3.307-1.994-8.75-1.97-5.074.023-6.315.284-5 1.05m24.621 1.67c-.594 1.512-2.189 5.675-3.545 9.25-1.355 3.575-3.119 7.512-3.918 8.75-1.418 2.194-1.36 2.249 2.319 2.218 3.375-.028 3.586-.174 2.001-1.376-1.428-1.083-1.578-1.855-.775-3.968.818-2.151 1.637-2.624 4.544-2.624 2.801 0 3.782.519 4.671 2.47.861 1.889.827 2.831-.143 4-1.105 1.331-.734 1.53 2.853 1.53 2.267 0 4.122-.45 4.122-1s-.349-1-.775-1c-.426 0-2.564-4.719-4.75-10.486-2.186-5.768-4.324-10.493-4.75-10.5-.426-.008-1.26 1.224-1.854 2.736m13.929-1.55c1.493 1.493 1.678 19.8.2 19.8-.55 0-1 .45-1 1 0 .588 3.5 1 8.5 1h8.5v-3.5c0-4.047-1.491-4.666-2.411-1-.537 2.143-1.196 2.5-4.608 2.5H116v-9.3c0-5.9.439-9.739 1.2-10.5.933-.933.222-1.2-3.2-1.2s-4.133.267-3.2 1.2m18.45-.12c1.464.853 1.75 2.507 1.75 10.109 0 7.485-.309 9.325-1.75 10.419-1.532 1.163-1.138 1.332 3.155 1.36 4.689.031 4.832-.048 3.25-1.797-2.138-2.362-2.188-8.029-.077-8.839 2.121-.814 3.845 1.286 5.317 6.479 1.081 3.814 1.523 4.275 3.836 4 1.438-.171 2.8-.874 3.025-1.562.261-.793-.169-1.028-1.172-.643-.979.376-1.584.075-1.584-.788 0-.767-.821-3.006-1.825-4.975-1.767-3.466-1.767-3.617 0-4.72 1.093-.683 1.825-2.317 1.825-4.075 0-4.342-3.122-6.054-10.973-6.018-4.922.023-6.097.281-4.777 1.05m20.5-.418c1.557.629 1.8 20.338.25 20.338-.55 0-1 .45-1 1 0 .588 3.5 1 8.5 1h8.5v-3.5c0-3.861-1.673-4.82-2.18-1.25-.266 1.87-1.037 2.302-4.57 2.557l-4.25.308v-4.558c0-3.503.369-4.557 1.594-4.557.876 0 1.829.9 2.116 2 .937 3.584 2.29 2.107 2.29-2.5 0-2.475-.45-4.5-1-4.5s-1 .623-1 1.383c0 .761-.9 1.619-2 1.907-1.778.465-2 .03-2-3.915 0-3.025.478-4.621 1.502-5.014 2.277-.874 6.498.49 6.498 2.099 0 .782.45 1.7 1 2.04.583.361 1-.656 1-2.441V131l-8.25.079c-4.537.043-7.687.306-7 .583m21.27 6.588c4.287 7.865 4.972 12.276 2.23 14.358-1.534 1.165-1.164 1.332 3 1.36 2.613.018 4.75-.418 4.75-.968s-.45-1-1-1c-2.315 0-.911-8.581 2.414-14.75l3.368-6.25H182.2c-3.331 0-3.447.099-1.65 1.413 1.899 1.388 1.891 1.499-.431 6.25l-2.364 4.837-2.608-5.298c-2.233-4.537-2.395-5.434-1.128-6.235 1.058-.669.276-.941-2.735-.952l-4.216-.015 3.952 7.25m-93.353-5.583c-.367.366-.667 2.841-.667 5.5 0 4.664.101 4.833 2.893 4.833 3.142 0 4.107-1.421 4.107-6.047 0-3.51-4.24-6.38-6.333-4.286m57 0c-.367.366-.667 2.616-.667 5 0 3.855.254 4.333 2.3 4.333 3.064 0 4.7-1.797 4.7-5.165 0-3.398-4.284-6.218-6.333-4.168m-38.523 7.35C94.675 144.232 94.596 144 97.5 144c2.779 0 3.08-1.325 1.109-4.882l-1.321-2.383-1.144 3.282m3.538 27.634c-.375.375-.682 4.872-.682 9.993 0 10.826-1.735 8.888 16.68 18.637l12.181 6.448 12.319-6.429c18.664-9.74 16.939-7.757 16.606-19.096l-.286-9.704-28.068-.265c-15.438-.146-28.375.041-28.75.416" fill="#1976D2" fill-rule="evenodd"/><path fill-opacity=".187" d="M125.079 44.404c-.641.773-.924 2.46-.63 3.75.406 1.775-.685 3.867-4.482 8.596-4.401 5.483-5.439 6.25-8.457 6.25-4.972 0-10.642-5.091-9.885-8.875.722-3.61-1.612-5.738-4.561-4.159-2.376 1.271-2.708 4.255-.662 5.953.772.64 2.184 4.408 3.138 8.372C102.38 76.094 99.471 75 128 75s25.62 1.094 28.46-10.709c.954-3.964 2.366-7.732 3.138-8.372 2.046-1.698 1.714-4.682-.662-5.953-2.949-1.579-5.283.549-4.561 4.159.759 3.795-4.913 8.875-9.911 8.875-3.059 0-4.023-.718-8.215-6.115-2.83-3.645-4.789-7.222-4.849-8.853-.055-1.506-.419-3.254-.809-3.885-.979-1.584-4.104-1.438-5.512.257M102.396 80.41c-.305.795-.406 2.49-.225 3.767l.329 2.323h51v-7l-25.275-.267c-21.286-.225-25.362-.039-25.829 1.177M70.75 105.662c1.701.687 1.745 19.443.05 21.138-.933.933-.232 1.2 3.155 1.2 4.156 0 4.279-.084 2.7-1.829-.91-1.006-1.655-3.481-1.655-5.5 0-3.257.284-3.671 2.521-3.671 2.599 0 3.735 1.678 4.94 7.293.668 3.118 2.656 4.305 5.289 3.159 1.667-.725 1.667-.781 0-1.18-.963-.23-1.75-.966-1.75-1.634 0-.668-.831-2.845-1.846-4.836-1.795-3.52-1.795-3.665 0-5.202 1.015-.869 1.846-2.684 1.846-4.034 0-3.751-3.488-5.579-10.473-5.487-3.315.043-5.464.306-4.777.583m21.05.538c1.664 1.664 1.625 18.975-.047 20.647-.995.995.365 1.186 6.75.95l7.997-.297.187-3.5.186-3.5-1.126 2.74c-.795 1.935-2.08 2.919-4.372 3.349-4.48.841-5.375-.016-5.375-5.148 0-3.798.294-4.441 2.032-4.441 1.173 0 2.415.951 2.937 2.25.726 1.807.917 1.271.968-2.723.061-4.779.002-4.886-1.494-2.75-2.734 3.905-4.443 2.815-4.443-2.834v-5.058l4.21.308c3.516.256 4.324.719 4.9 2.807.636 2.304.698 2.245.79-.75l.1-3.25h-7.7c-5.989 0-7.433.267-6.5 1.2m18.95-.538c1.701.687 1.745 19.443.05 21.138-.933.933-.433 1.193 2.25 1.168 3.121-.029 3.279-.161 1.659-1.39-1.524-1.156-1.747-2.657-1.5-10.103l.291-8.745 6.5 10.268 6.5 10.269.287-10.326c.158-5.679.776-10.914 1.373-11.633.852-1.028.469-1.291-1.788-1.229-1.579.043-2.309.306-1.622.583.851.344 1.24 2.949 1.219 8.171l-.031 7.667-5.219-8.228c-4.676-7.373-5.531-8.223-8.219-8.171-1.65.031-2.437.284-1.75.561m21.35 2.588c.092 2.994.154 3.053.789.75.484-1.753 1.5-2.595 3.401-2.816l2.71-.317v9.706c0 8.072-.295 9.93-1.75 11.035-1.529 1.161-1.119 1.328 3.25 1.328s4.779-.167 3.25-1.328c-1.455-1.105-1.75-2.963-1.75-11.035v-9.706l2.71.317c1.901.221 2.917 1.063 3.401 2.816.635 2.303.697 2.244.789-.75l.1-3.25h-17l.1 3.25m26.98-1c-4.27 11.033-7.426 18.457-8.29 19.5-.791.956-.271 1.25 2.21 1.25 2.73 0 3.053-.231 2.034-1.459-.74-.892-.951-2.641-.543-4.5.601-2.737 1.047-3.041 4.467-3.041 3.279 0 3.97.411 5.042 3.001.991 2.392.991 3.305-.001 4.5-1.066 1.285-.727 1.499 2.379 1.499 3.607 0 4.408-.743 2.751-2.55-.479-.523-2.55-5.338-4.603-10.7-2.053-5.362-3.922-9.75-4.154-9.75-.232 0-.813 1.013-1.292 2.25m14.477.022c-2.209 3.372-.909 6.288 4.556 10.214 4.878 3.504 5.99 6.011 3.687 8.314-2.662 2.662-7.8.725-7.8-2.941 0-.958-.45-2.019-1-2.359-.6-.371-.998.905-.996 3.191l.005 3.809 4.966.279c3.902.22 5.401-.155 6.996-1.75 4.04-4.04 2.617-6.997-6.409-13.326-2.962-2.077-3.339-5.151-.812-6.623 1.643-.957 1.645-1.021.023-1.05-.95-.016-2.397.993-3.216 2.242m7.193-1.23c1.238.492 2.25 1.556 2.25 2.367 0 .81.45 1.751 1 2.091.576.356.999-.573.998-2.191-.002-2.466-.399-2.83-3.25-2.984-2.848-.154-2.971-.066-.998.717m-105.083.625c-.367.366-.667 2.616-.667 5 0 4.155.124 4.333 3.021 4.333 3.881 0 5.911-3.659 4.161-7.5-1.093-2.399-4.883-3.466-6.515-1.833m82.381 5.833a398.012 398.012 0 0 0-1.546 4.25c-.287.818.587 1.25 2.529 1.25 3.379 0 3.52-.468 1.547-5.135l-1.423-3.365-1.107 3M72.8 132.2c1.628 1.628 1.628 18.972 0 20.6-.933.933-.211 1.193 3.25 1.17 3.509-.024 4.08-.246 2.7-1.05-1.132-.659-1.75-2.239-1.75-4.47 0-2.811.379-3.45 2.05-3.45 2.832 0 7.579-2.59 8.329-4.545 2.163-5.638-1.96-9.455-10.214-9.455-4.328 0-5.298.267-4.365 1.2m21.739 8.528c-2.099 5.374-4.204 10.2-4.678 10.722-1.508 1.663-.935 2.55 1.647 2.55 2.136 0 2.348-.26 1.424-1.75-.767-1.237-.777-2.556-.033-4.5.872-2.28 1.653-2.75 4.573-2.75 3.027 0 3.714.457 4.886 3.25.913 2.175 1.038 3.663.38 4.5-.747.95-.123 1.25 2.606 1.25h3.589l-1.845-3.25c-1.015-1.787-3.086-6.625-4.601-10.75-1.516-4.125-3.066-7.848-3.444-8.272-.378-.425-2.405 3.625-4.504 9m16.211-9.066c.887.358 1.25 3.507 1.25 10.838 0 7.331-.363 10.48-1.25 10.838-.687.277 2.388.54 6.833.583 4.446.043 8.306-.143 8.578-.415.272-.272.267-1.96-.01-3.75-.479-3.087-.537-3.127-1.121-.765-.667 2.698-4.73 4.722-7.413 3.692-1.339-.514-1.617-2.328-1.617-10.568 0-7.023.368-10.097 1.25-10.453.688-.277-.775-.504-3.25-.504s-3.937.227-3.25.504m19.05.538c.758.758 1.2 4.556 1.2 10.3 0 5.744-.442 9.542-1.2 10.3-.933.933-.333 1.2 2.7 1.2 3.033 0 3.633-.267 2.7-1.2-.66-.66-1.2-3.165-1.2-5.566 0-4.174.122-4.353 2.75-4.05 2.282.262 2.92.996 3.75 4.316.55 2.2 1.364 4.563 1.809 5.25.964 1.49 4.32 1.659 5.184.261.347-.561-.043-.737-.903-.407-1.133.435-1.802-.559-2.654-3.943-.627-2.489-1.821-4.787-2.655-5.107-1.207-.463-.982-1.001 1.102-2.64 3.128-2.461 3.341-5.19.617-7.914-1.57-1.57-3.333-2-8.2-2-4.822 0-5.933.267-5 1.2m20.45-.12c1.47.856 1.75 2.522 1.75 10.42 0 7.888-.282 9.569-1.75 10.445-1.291.771.48.98 6.75.8 8.46-.244 8.501-.258 8.816-2.995.383-3.321-.964-3.61-2.329-.5-.753 1.717-1.817 2.25-4.487 2.25-3.466 0-3.503-.046-3.805-4.75-.271-4.224-.077-4.75 1.75-4.75 1.13 0 2.055.648 2.055 1.441s.375 1.673.833 1.956c.459.283.834-1.49.834-3.941 0-4.623-1.047-5.937-1.957-2.456-.287 1.1-1.24 2-2.116 2-1.249 0-1.594-1.097-1.594-5.06v-5.061l3.727.311c2.8.233 4.04.932 4.985 2.81l1.259 2.5.014-3.25L165 131l-8.25.03c-6.093.023-7.792.297-6.5 1.05m20.801 5.77c4.06 7.043 5.085 12.614 2.749 14.95-.933.933-.211 1.193 3.25 1.17 3.509-.024 4.08-.246 2.7-1.05-3.058-1.781-2.212-7.661 2.185-15.186L185.87 131l-3.185.079c-1.752.043-2.622.306-1.935.583.688.278 1.25 1.16 1.25 1.961 0 1.578-3.746 9.377-4.503 9.377-.255 0-1.571-2.185-2.924-4.856-1.847-3.645-2.175-5.142-1.317-6 .859-.859.234-1.144-2.505-1.144h-3.65l3.95 6.85m-93.384-5.183c-.367.366-.667 3.066-.667 6 0 5.675.964 6.493 5.066 4.298 2.234-1.196 2.729-7.77.734-9.765-1.307-1.307-4.072-1.595-5.133-.533m57 0c-.367.366-.667 2.616-.667 5 0 4.156.124 4.333 3.025 4.333 2.303 0 3.25-.594 3.972-2.491.995-2.617.385-5.505-1.424-6.744-1.348-.923-4.028-.977-4.906-.098m-38.931 7.322L94.161 144h6.737l-1.554-3.75c-.855-2.062-1.662-3.867-1.793-4.011-.132-.143-.948 1.544-1.815 3.75m4.265 37.761v9.75l13.992 7.321 13.992 7.321 13.997-7.321 13.998-7.321.01-9.75.01-9.75h-56l.001 9.75" fill="#1976D2" fill-rule="evenodd"/><path fill-opacity=".678" d="M71.975 106.47c.831 1.001 1.109 4.508.873 11.001-.291 7.96-.101 9.53 1.152 9.53 1.242-.001 1.5-1.89 1.5-11.001 0-10.909-.02-11-2.372-11-1.974 0-2.168.247-1.153 1.47M92.5 116c0 10.333.121 11 2 11s2-.667 2-11-.121-11-2-11-2 .667-2 11m11.243-9.75c.544.688 1.238 1.925 1.544 2.75.316.855.589.317.634-1.25.055-1.902-.421-2.75-1.543-2.75-1.159 0-1.34.358-.635 1.25m8.959 1c1.127 1.237 4.693 6.262 7.924 11.165 4.144 6.29 5.959 8.345 6.164 6.979.451-3.017-11.535-20.394-14.067-20.394h-2.072l2.051 2.25m12.808-1.234c.346.559 1.047.758 1.559.441 1.387-.857 1.129-1.457-.628-1.457-.857 0-1.276.457-.931 1.016m6.505 1.234c.012 1.658.244 1.89.882.882.477-.752 1.483-1.758 2.235-2.235 1.008-.638.776-.87-.882-.882-1.676-.011-2.246.559-2.235 2.235m6.797 8.752c-.296 10.44-.21 11.002 1.688 11.002s1.984-.562 1.688-11.002c-.242-8.518-.623-11.002-1.688-11.002s-1.446 2.484-1.688 11.002m7.056-10.105c.752.477 1.758 1.483 2.235 2.235.638 1.008.87.776.882-.882.011-1.676-.559-2.246-2.235-2.235-1.658.012-1.89.244-.882.882m13.825.461c-.346.902.782 5.333 2.506 9.848 1.724 4.514 3.134 8.79 3.134 9.501 0 .711.805 1.293 1.789 1.293 1.657 0 1.614-.46-.575-6.25-5.533-14.636-6.213-16.063-6.854-14.392m15.057-.278c-2.947 1.716-2.204 6.371 1.5 9.4 1.787 1.463 4.083 3.337 5.102 4.167 1.252 1.019 1.718 2.422 1.439 4.327-.517 3.521 1.738 3.038 2.643-.567.836-3.33-.525-5.45-5.394-8.407-4.409-2.677-6.03-6.102-4.029-8.513 1.434-1.728 1.16-1.817-1.261-.407m-93 1.023c2.029 2.105 1.504 6.606-.973 8.34-1.222.856-1.689 1.557-1.038 1.557s1.695 1.912 2.32 4.25c1.156 4.322 2.575 6.75 3.946 6.75 1.056 0-1.832-8.19-3.48-9.875-1.132-1.156-.926-1.736 1.294-3.646 2.305-1.982 2.513-2.632 1.64-5.115-.552-1.57-1.887-3.004-2.98-3.201-1.6-.289-1.74-.109-.729.94m101.35 1.147c1.724 3.312 1.928 3.363 1.685.419-.122-1.468-.814-2.669-1.538-2.669-1.046 0-1.076.463-.147 2.25m-83.557 7.681c-.317.512-.118 1.213.441 1.559.559.345 1.016-.074 1.016-.931 0-1.757-.6-2.015-1.457-.628M173 124.226c0 .858.739 1.843 1.641 2.19 1.429.548 1.466.4.283-1.143a88.762 88.762 0 0 1-1.641-2.19c-.156-.229-.283.286-.283 1.143m-68.362 1.274c-.347.905-.005 1.5.862 1.5s1.209-.595.862-1.5c-.317-.825-.705-1.5-.862-1.5-.157 0-.545.675-.862 1.5m7.362.5c0 .55.477 1 1.059 1s.781-.45.441-1-.816-1-1.059-1-.441.45-.441 1m39.5 0c-.34.55.11 1 1 1s1.34-.45 1-1c-.34-.55-.79-1-1-1-.21 0-.66.45-1 1m-77.688 15.998c.271 9.533.538 11.002 2 11.002 1.482 0 1.688-1.345 1.688-11 0-10.333-.121-11-2-11.002-1.898-.002-1.984.56-1.688 11m38.688.081c0 9.038.258 10.918 1.5 10.918 1.241 0 1.5-1.867 1.5-10.805 0-8.888-.266-10.826-1.5-10.919-1.249-.094-1.5 1.717-1.5 10.806m18.312-.081c.271 9.533.538 11.002 2 11.002 1.482 0 1.688-1.345 1.688-11 0-10.333-.121-11-2-11.002-1.898-.002-1.984.56-1.688 11M151.5 142c0 9.111.258 11 1.5 11s1.5-1.889 1.5-11-.258-11-1.5-11-1.5 1.889-1.5 11m11.844-8.533c.636 1.357 1.311 2.017 1.5 1.467.49-1.422-.607-3.934-1.719-3.934-.524 0-.427 1.088.219 2.467m4.656-1.838c0 .105 1.848 3.452 4.106 7.437 3.281 5.79 3.996 7.917 3.562 10.59-.443 2.73-.219 3.344 1.216 3.344 1.524 0 1.668-.63 1.086-4.75-.369-2.613-1.908-6.898-3.419-9.523-1.511-2.625-2.495-5.431-2.186-6.236.409-1.067-.105-1.407-1.902-1.259-1.355.112-2.463.291-2.463.397m13-.189c0 .173.622.832 1.383 1.463 1.055.875 1.504.834 1.89-.173.302-.785-.259-1.379-1.383-1.463-1.039-.079-1.89-.001-1.89.173m-96.674 3.612c.949 2.514.853 3.57-.541 6-1.887 3.288-.987 3.934 1.56 1.119 1.929-2.131 2.188-7.238.455-8.971-2.07-2.07-2.67-1.317-1.474 1.852m13.466-1.927c-.239.716 1.052 5.086 2.869 9.713 1.816 4.627 3.059 8.806 2.762 9.287-.298.481.666.875 2.14.875 2.025 0 2.431-.306 1.659-1.25-.563-.687-2.475-5.075-4.248-9.75-3.469-9.141-4.503-10.913-5.182-8.875m43.173.809c1.6 2.99 1.231 5.927-.914 7.266-1.348.842-1.647 1.582-.968 2.4.539.65 1.548 3.141 2.241 5.535.841 2.905 1.902 4.477 3.187 4.725 1.516.292 1.691.081.823-.995-.607-.751-1.415-2.825-1.797-4.609-.381-1.784-1.446-3.697-2.365-4.25-1.554-.935-1.55-1.079.066-2.049 3.185-1.911 4.079-4.824 2.31-7.524-1.935-2.954-4.123-3.376-2.583-.499m17.686 7.534c-.31.807-.133 1.734.393 2.059.526.325.956-.336.956-1.468 0-2.415-.556-2.658-1.349-.591m-34.44 10.07c-1.066 1.208-1.022 1.462.25 1.462.846 0 1.539-.675 1.539-1.5 0-1.824-.15-1.82-1.789.038m39.427-.038c-.316.825-.139 1.5.393 1.5.533 0 .969-.675.969-1.5s-.177-1.5-.393-1.5c-.216 0-.652.675-.969 1.5M90 152c0 .55.45 1 1 1s1-.45 1-1-.45-1-1-1-1 .45-1 1" fill="#1976D2" fill-rule="evenodd"/></svg>